# Blender v2.79 (sub 0) OBJ File: 'wall for window.blend'
# www.blender.org
mtllib wall for window.mtl
o Cube.003_Cube.005
v -10.359033 0.251172 -0.240301
v -10.359033 6.251172 -0.240301
v -10.359033 0.251172 -0.340301
v -10.359033 6.251172 -0.340301
v 9.640967 0.251172 -0.240301
v 9.640967 6.251172 -0.240301
v 9.640967 0.251172 -0.340301
v 9.640967 6.251172 -0.340301
v -10.359033 2.401780 -0.240301
v -10.359033 2.401780 -0.340301
v 9.640967 2.401780 -0.340301
v 9.640967 2.401780 -0.240301
v -10.359033 5.339150 -0.240301
v -10.359033 5.339150 -0.340301
v 9.640967 5.339150 -0.340301
v 9.640967 5.339150 -0.240301
v -7.093773 0.251172 -0.340301
v -7.093773 6.251172 -0.340301
v -7.093773 0.251172 -0.240301
v -7.093773 6.251172 -0.240301
v -7.093773 2.401780 -0.240301
v -7.093773 2.401780 -0.340301
v -7.093773 5.339150 -0.240301
v -7.093773 5.339150 -0.340301
v 6.373058 6.251172 -0.340301
v 6.373058 0.251172 -0.240301
v 6.373058 2.401780 -0.340301
v 6.373058 5.339150 -0.340301
v 6.373058 0.251172 -0.340301
v 6.373058 6.251172 -0.240301
v 6.373058 2.401780 -0.240301
v 6.373058 5.339150 -0.240301
vn -1.0000 0.0000 0.0000
vn 0.0000 0.0000 -1.0000
vn 1.0000 0.0000 0.0000
vn 0.0000 0.0000 1.0000
vn 0.0000 -1.0000 0.0000
vn 0.0000 1.0000 0.0000
usemtl None
s off
f 13//1 2//1 4//1 14//1
f 28//2 25//2 8//2 15//2
f 15//3 8//3 6//3 16//3
f 23//4 20//4 2//4 13//4
f 29//5 7//5 5//5 26//5
f 18//6 4//6 2//6 20//6
f 19//4 21//4 9//4 1//4
f 7//3 11//3 12//3 5//3
f 29//2 27//2 11//2 7//2
f 1//1 9//1 10//1 3//1
f 21//4 23//4 13//4 9//4
f 11//3 15//3 16//3 12//3
f 27//2 28//2 15//2 11//2
f 9//1 13//1 14//1 10//1
f 10//2 14//2 24//2 22//2
f 31//1 32//1 28//1 27//1
f 3//2 10//2 22//2 17//2
f 26//4 31//4 21//4 19//4
f 25//6 18//6 20//6 30//6
f 3//5 17//5 19//5 1//5
f 32//4 30//4 20//4 23//4
f 14//2 4//2 18//2 24//2
f 16//4 6//4 30//4 32//4
f 8//6 25//6 30//6 6//6
f 5//4 12//4 31//4 26//4
f 12//4 16//4 32//4 31//4
f 22//3 24//3 23//3 21//3
f 17//2 22//2 27//2 29//2
f 17//5 29//5 26//5 19//5
f 24//2 18//2 25//2 28//2
f 32//5 23//5 24//5 28//5
f 31//6 27//6 22//6 21//6
