# Blender v2.79 (sub 0) OBJ File: 'Bathtub.blend'
# www.blender.org
mtllib Bathtub.mtl
o Cube_Cube.001
v -0.957994 0.106732 1.977057
v -0.957994 1.506732 1.977057
v -0.971135 0.106732 -1.987494
v -0.971135 1.506732 -1.987494
v 0.957808 0.106732 1.976000
v 0.957808 1.506732 1.976000
v 0.977650 0.106732 -1.988067
v 0.977650 1.506732 -1.988067
v -0.703299 1.506732 1.598477
v -0.629470 1.506732 1.690186
v -0.563392 1.506732 1.715559
v -0.422623 1.506732 1.724955
v 0.637929 1.506732 1.716761
v 0.762861 1.506732 1.634906
v 0.846769 1.506732 1.503023
v 0.854642 1.506732 -1.545465
v 0.789297 1.506732 -1.661958
v 0.698632 1.506732 -1.720663
v 0.516439 1.506732 -1.730385
v -0.477702 1.506732 -1.738235
v -0.610588 1.506732 -1.697864
v -0.702713 1.506732 -1.574329
v -0.736981 1.506732 -1.433770
v -0.768446 1.506732 1.457133
v -0.692594 1.469651 1.572934
v -0.619942 1.469651 1.663180
v -0.554918 1.469651 1.688149
v -0.416392 1.469651 1.697395
v 0.627252 1.469651 1.689332
v 0.750193 1.469651 1.608781
v 0.832763 1.469651 1.479001
v 0.840511 1.469651 -1.520889
v 0.776208 1.469651 -1.635525
v 0.686988 1.469651 -1.693294
v 0.507699 1.469651 -1.702862
v -0.470594 1.469651 -1.710586
v -0.601361 1.469651 -1.670858
v -0.692018 1.469651 -1.549293
v -0.725739 1.469651 -1.410975
v -0.756702 1.469651 1.433843
v -0.681750 1.403490 1.547057
v -0.610290 1.403490 1.635823
v -0.546333 1.403490 1.660382
v -0.410080 1.403490 1.669476
v 0.616437 1.403490 1.661545
v 0.737359 1.403490 1.582316
v 0.818575 1.403490 1.454665
v 0.826196 1.403490 -1.495993
v 0.762948 1.403490 -1.608748
v 0.675192 1.403490 -1.665569
v 0.498846 1.403490 -1.674979
v -0.463392 1.403490 -1.682577
v -0.592014 1.403490 -1.643501
v -0.681183 1.403490 -1.523931
v -0.714350 1.403490 -1.387883
v -0.744806 1.403490 1.410249
v -0.600029 0.299410 1.352058
v -0.537554 0.299410 1.429663
v -0.481638 0.299410 1.451134
v -0.362517 0.299410 1.459084
v 0.534934 0.299410 1.452151
v 0.640653 0.299410 1.382884
v 0.711657 0.299410 1.271283
v 0.718319 0.299410 -1.308384
v 0.663024 0.299410 -1.406961
v 0.586302 0.299410 -1.456638
v 0.432128 0.299410 -1.464865
v -0.409126 0.299410 -1.471508
v -0.521576 0.299410 -1.437345
v -0.599533 0.299410 -1.332809
v -0.628531 0.299410 -1.213866
v -0.655157 0.299410 1.232451
v -0.453293 0.352168 -1.643295
v 0.486429 0.352168 -1.635875
v 0.601268 0.352168 1.622575
v -0.401228 0.352168 1.630320
v -0.578904 0.352168 -1.605134
v 0.719361 0.352168 1.545200
v -0.665987 0.352168 -1.488361
v 0.798677 0.352168 1.420536
v -0.698379 0.352168 -1.355497
v 0.806119 0.352168 -1.461077
v -0.728121 0.352168 1.377159
v 0.744351 0.352168 -1.571193
v -0.596753 0.352168 1.597455
v -0.666541 0.352168 1.510766
v 0.658649 0.352168 -1.626685
v -0.534292 0.352168 1.621439
v 0.498846 0.419543 -1.674979
v -0.410080 0.419543 1.669476
v -0.681750 0.419543 1.547057
v -0.463392 0.419543 -1.682577
v 0.616437 0.419543 1.661545
v -0.592014 0.419543 -1.643501
v 0.737359 0.419543 1.582316
v -0.681183 0.419543 -1.523931
v 0.818575 0.419543 1.454665
v -0.714350 0.419543 -1.387883
v 0.826196 0.419543 -1.495993
v -0.744806 0.419543 1.410249
v 0.762948 0.419543 -1.608748
v -0.610290 0.419543 1.635823
v 0.675192 0.419543 -1.665569
v -0.546333 0.419543 1.660382
v -1.000000 0.106732 1.933619
v -1.000000 1.506732 1.933619
v 1.000000 0.106732 1.933619
v 1.000000 1.506732 1.933619
v 0.905715 0.106732 -2.000000
v 0.905715 1.506732 -2.000000
v 0.905715 0.106732 2.000000
v 0.905715 1.506732 2.000000
v 0.905715 0.106732 1.933619
v -0.908476 0.106732 -2.000000
v -0.908476 1.506732 2.000000
v -0.908476 0.106732 1.933619
v -0.908476 1.506732 -2.000000
v -0.908476 0.106732 2.000000
v -1.000000 1.506732 -1.938608
v 1.000000 0.106732 -1.938608
v -1.000000 0.106732 -1.938608
v 1.000000 1.506732 -1.938608
v 0.905715 0.106732 -1.938608
v -0.908476 0.106732 -1.938608
vn -0.8611 0.0000 -0.5084
vn 0.1636 0.0000 -0.9865
vn 0.7087 0.0000 0.7055
vn -0.4204 0.0000 0.9073
vn 0.0000 -1.0000 0.0000
vn 0.0000 1.0000 -0.0000
vn -0.7891 0.3539 -0.5021
vn -0.4264 0.6200 0.6586
vn 0.2838 0.6111 -0.7390
vn -0.0426 0.6019 0.7974
vn 0.0532 0.6014 -0.7972
vn -0.0063 0.5970 0.8022
vn -0.0062 0.5958 -0.8031
vn 0.2304 0.6097 0.7584
vn -0.4329 0.6133 -0.6606
vn 0.6768 0.5360 0.5047
vn -0.7021 0.5546 -0.4467
vn 0.8892 0.4029 0.2168
vn -0.9350 0.3547 -0.0024
vn 0.9551 0.2960 0.0104
vn -0.7290 0.5489 0.4089
vn 0.6511 0.5490 -0.5241
vn 0.7956 0.4823 -0.3667
vn -0.0023 0.9558 0.2941
vn 0.9426 0.2424 0.2298
vn -0.9776 0.2106 -0.0025
vn 0.9848 0.1733 0.0107
vn -0.8172 0.3493 0.4584
vn 0.7298 0.3494 -0.5876
vn 0.8668 0.2983 -0.3995
vn -0.4959 0.4093 0.7659
vn 0.3283 0.4014 -0.8550
vn -0.0490 0.3934 0.9180
vn 0.0612 0.3930 -0.9175
vn -0.0073 0.3892 0.9211
vn -0.0071 0.3882 -0.9215
vn 0.2664 0.4002 0.8769
vn -0.5015 0.4034 -0.7654
vn 0.7541 0.3391 0.5624
vn -0.0023 0.9555 -0.2949
vn 0.0829 0.9584 0.2730
vn -0.1550 0.9592 -0.2366
vn 0.2720 0.9407 0.2028
vn -0.2742 0.9457 -0.1744
vn 0.4484 0.8871 0.1093
vn -0.5168 0.8561 -0.0013
vn 0.5943 0.8042 0.0065
vn -0.2872 0.9442 0.1611
vn 0.2564 0.9443 -0.2064
vn 0.3488 0.9233 -0.1608
vn -0.1513 0.9605 0.2336
vn 0.1019 0.9587 -0.2655
vn -0.0155 0.9568 0.2903
vn 0.0194 0.9567 -0.2904
vn 0.0574 0.5073 -0.8599
vn -0.0459 0.5078 0.8603
vn 0.3069 0.5168 -0.7992
vn -0.4624 0.5256 0.7141
vn 0.8342 0.3954 -0.3845
vn 0.6929 0.4569 -0.5578
vn -0.7759 0.4567 0.4352
vn 0.9718 0.2355 0.0106
vn -0.9587 0.2844 -0.0025
vn 0.9187 0.3254 0.2240
vn -0.7482 0.4621 -0.4760
vn 0.7180 0.4446 0.5355
vn -0.4684 0.5190 -0.7150
vn 0.2491 0.5154 0.8199
vn -0.0067 0.5018 -0.8650
vn -0.0068 0.5029 0.8643
vn -0.0079 0.0000 1.0000
vn -0.0077 0.0000 -1.0000
vn 0.2907 0.0000 0.9568
vn -0.5480 0.0000 -0.8365
vn 0.8016 0.0000 0.5978
vn -0.8437 0.0000 -0.5368
vn 0.9715 0.0000 0.2369
vn -1.0000 0.0000 -0.0026
vn 0.9999 0.0000 0.0109
vn -0.8722 0.0000 0.4892
vn 0.7790 0.0000 -0.6271
vn 0.9082 0.0000 -0.4186
vn -0.5435 0.0000 0.8394
vn 0.3585 0.0000 -0.9335
vn -0.0533 0.0000 0.9986
vn 0.0666 0.0000 -0.9978
vn 1.0000 0.0000 0.0000
vn -0.7189 0.0000 0.6952
vn 0.4184 0.0000 0.9082
vn 0.0000 0.0000 -1.0000
vn -0.1957 0.0000 -0.9807
vn 0.0000 0.0000 1.0000
vn 0.9113 0.0000 -0.4118
vn -1.0000 0.0000 0.0000
usemtl Material
s off
f 121//1 119//1 4//1 3//1
f 109//2 110//2 8//2 7//2
f 107//3 108//3 6//3 5//3
f 118//4 115//4 2//4 1//4
f 113//5 107//5 5//5 111//5
f 8//6 16//6 15//6 14//6 13//6 12//6 11//6 10//6 9//6 24//6 2//6 115//6 112//6 6//6 108//6 122//6
f 30//7 31//7 47//7 46//7
f 2//6 24//6 23//6 22//6 21//6 20//6 19//6 18//6 17//6 16//6 8//6 110//6 117//6 4//6 119//6 106//6
f 17//8 18//8 34//8 33//8
f 10//9 11//9 27//9 26//9
f 18//10 19//10 35//10 34//10
f 11//11 12//11 28//11 27//11
f 19//12 20//12 36//12 35//12
f 12//13 13//13 29//13 28//13
f 20//14 21//14 37//14 36//14
f 13//15 14//15 30//15 29//15
f 21//16 22//16 38//16 37//16
f 14//17 15//17 31//17 30//17
f 22//18 23//18 39//18 38//18
f 15//19 16//19 32//19 31//19
f 23//20 24//20 40//20 39//20
f 16//21 17//21 33//21 32//21
f 9//22 10//22 26//22 25//22
f 24//23 9//23 25//23 40//23
f 74//24 73//24 68//24 67//24
f 38//25 39//25 55//25 54//25
f 31//26 32//26 48//26 47//26
f 39//27 40//27 56//27 55//27
f 32//28 33//28 49//28 48//28
f 25//29 26//29 42//29 41//29
f 40//30 25//30 41//30 56//30
f 33//31 34//31 50//31 49//31
f 26//32 27//32 43//32 42//32
f 34//33 35//33 51//33 50//33
f 27//34 28//34 44//34 43//34
f 35//35 36//35 52//35 51//35
f 28//36 29//36 45//36 44//36
f 36//37 37//37 53//37 52//37
f 29//38 30//38 46//38 45//38
f 37//39 38//39 54//39 53//39
f 65//6 66//6 67//6 68//6 69//6 70//6 71//6 72//6 57//6 58//6 59//6 60//6 61//6 62//6 63//6 64//6
f 76//40 75//40 61//40 60//40
f 73//41 77//41 69//41 68//41
f 75//42 78//42 62//42 61//42
f 77//43 79//43 70//43 69//43
f 78//44 80//44 63//44 62//44
f 79//45 81//45 71//45 70//45
f 80//46 82//46 64//46 63//46
f 81//47 83//47 72//47 71//47
f 82//48 84//48 65//48 64//48
f 86//49 85//49 58//49 57//49
f 83//50 86//50 57//50 72//50
f 84//51 87//51 66//51 65//51
f 85//52 88//52 59//52 58//52
f 87//53 74//53 67//53 66//53
f 88//54 76//54 60//54 59//54
f 104//55 90//55 76//55 88//55
f 103//56 89//56 74//56 87//56
f 102//57 104//57 88//57 85//57
f 101//58 103//58 87//58 84//58
f 100//59 91//59 86//59 83//59
f 91//60 102//60 85//60 86//60
f 99//61 101//61 84//61 82//61
f 98//62 100//62 83//62 81//62
f 97//63 99//63 82//63 80//63
f 96//64 98//64 81//64 79//64
f 95//65 97//65 80//65 78//65
f 94//66 96//66 79//66 77//66
f 93//67 95//67 78//67 75//67
f 92//68 94//68 77//68 73//68
f 90//69 93//69 75//69 76//69
f 89//70 92//70 73//70 74//70
f 51//71 52//71 92//71 89//71
f 44//72 45//72 93//72 90//72
f 52//73 53//73 94//73 92//73
f 45//74 46//74 95//74 93//74
f 53//75 54//75 96//75 94//75
f 46//76 47//76 97//76 95//76
f 54//77 55//77 98//77 96//77
f 47//78 48//78 99//78 97//78
f 55//79 56//79 100//79 98//79
f 48//80 49//80 101//80 99//80
f 41//81 42//81 102//81 91//81
f 56//82 41//82 91//82 100//82
f 49//83 50//83 103//83 101//83
f 42//84 43//84 104//84 102//84
f 50//85 51//85 89//85 103//85
f 43//86 44//86 90//86 104//86
f 123//5 120//5 107//5 113//5
f 120//87 122//87 108//87 107//87
f 1//88 2//88 106//88 105//88
f 124//5 123//5 113//5 116//5
f 116//5 113//5 111//5 118//5
f 5//89 6//89 112//89 111//89
f 114//90 117//90 110//90 109//90
f 3//91 4//91 117//91 114//91
f 105//5 116//5 118//5 1//5
f 121//5 124//5 116//5 105//5
f 111//92 112//92 115//92 118//92
f 3//5 114//5 124//5 121//5
f 114//5 109//5 123//5 124//5
f 7//93 8//93 122//93 120//93
f 109//5 7//5 120//5 123//5
f 105//94 106//94 119//94 121//94
