# Blender v2.79 (sub 0) OBJ File: 'wall for doorframe.blend'
# www.blender.org
mtllib wall for doorframe.mtl
o Cube.002_Cube.004
v -10.204666 0.125250 0.104385
v -10.204666 6.125250 0.104385
v -10.204666 0.125250 0.004385
v -10.204666 6.125250 0.004385
v 9.795334 0.125250 0.104385
v 9.795334 6.125250 0.104385
v 9.795334 0.125250 0.004385
v 9.795334 6.125250 0.004385
v -7.832526 0.125250 0.004385
v -7.832526 6.125250 0.004385
v -7.832526 0.125250 0.104385
v -7.832526 6.125250 0.104385
v -5.316225 6.125250 0.004385
v -5.316225 0.125250 0.104385
v -5.316225 0.125250 0.004385
v -5.316225 6.125250 0.104385
v -10.204666 5.064439 0.104385
v -10.204666 5.064439 0.004385
v 9.795334 5.064439 0.004385
v 9.795334 5.064439 0.104385
v -7.832526 5.064439 0.104385
v -7.832526 5.064439 0.004385
v -5.316225 5.064439 0.104385
v -5.316225 5.064439 0.004385
vn -1.0000 0.0000 0.0000
vn 0.0000 0.0000 -1.0000
vn 1.0000 0.0000 0.0000
vn 0.0000 0.0000 1.0000
vn 0.0000 -1.0000 0.0000
vn 0.0000 1.0000 0.0000
usemtl None
s off
f 17//1 2//1 4//1 18//1
f 24//2 13//2 8//2 19//2
f 19//3 8//3 6//3 20//3
f 21//4 12//4 2//4 17//4
f 15//5 7//5 5//5 14//5
f 10//6 4//6 2//6 12//6
f 13//6 10//6 12//6 16//6
f 3//5 9//5 11//5 1//5
f 23//4 16//4 12//4 21//4
f 18//2 4//2 10//2 22//2
f 20//4 6//4 16//4 23//4
f 8//6 13//6 16//6 6//6
f 23//1 24//1 15//1 14//1
f 22//2 10//2 13//2 24//2
f 22//5 24//5 23//5 21//5
f 5//4 20//4 23//4 14//4
f 3//2 18//2 22//2 9//2
f 21//3 11//3 9//3 22//3
f 11//4 21//4 17//4 1//4
f 7//3 19//3 20//3 5//3
f 15//2 24//2 19//2 7//2
f 1//1 17//1 18//1 3//1
