# Blender v2.79 (sub 0) OBJ File: 'Sofa Diego.blend'
# www.blender.org
mtllib Sofa Diego.mtl
o Cube
v 1.000000 -0.556137 -1.000000
v 1.000000 -0.556137 1.000000
v -1.000000 -0.556137 1.000000
v -1.000000 -0.556137 -1.000000
v 1.000000 0.437346 -0.999999
v 0.999999 0.437346 1.000001
v -1.000000 0.437346 1.000000
v -1.000000 0.437346 -1.000000
v 1.318247 -0.556137 -1.000000
v 1.318247 -0.556137 1.000000
v 1.318248 1.000000 -0.999999
v 1.318246 1.000000 1.000001
v -1.283048 -0.556137 1.000000
v -1.283047 -0.556137 -1.000000
v -1.283048 1.000000 1.000000
v -1.283048 1.000000 -1.000000
v 1.000000 -0.556137 -1.318012
v -1.000000 -0.556137 -1.318012
v 1.000001 1.000000 -1.318011
v -1.000000 1.000000 -1.318012
v 1.000000 1.494640 -0.999999
v 0.999999 1.494640 1.000001
v -1.000000 1.494640 1.000000
v -1.000000 1.494640 -1.000000
v 1.318248 1.494640 -0.999999
v 1.318246 1.494640 1.000001
v -1.283048 1.494640 1.000000
v -1.283048 1.494640 -1.000000
v 1.005686 1.515438 -0.964268
v 1.005685 1.515438 0.964269
v -1.039872 1.515438 0.718270
v -1.039872 1.515438 -0.718270
v 1.312562 1.515438 -0.964268
v 1.312561 1.515438 0.964269
v -1.243177 1.515438 0.718270
v -1.243176 1.515438 -0.718271
v 1.066700 1.525954 -0.580828
v 1.066700 1.525954 0.580830
v 1.251547 1.525954 -0.580828
v 1.251547 1.525954 0.580830
v 1.140975 1.532135 -0.114053
v 1.140975 1.532135 0.114054
v 1.177272 1.532135 -0.114052
v 1.177272 1.532135 0.114054
v -1.115288 1.526477 0.185386
v -1.115288 1.526477 -0.185386
v -1.167761 1.526477 0.185386
v -1.167761 1.526477 -0.185386
v 1.000000 1.000000 -0.999999
v -1.000000 1.000000 -1.000000
v 1.000001 1.000000 -1.318011
v -1.000000 1.000000 -1.318012
v 1.000000 2.750757 -1.395657
v -1.000000 2.750757 -1.395657
v 1.000001 2.750757 -1.713668
v -1.000000 2.750757 -1.713669
v 1.000000 -0.556137 -1.309610
v 1.000001 0.437346 -1.309609
v -1.000000 -0.556137 -1.309610
v -1.000000 0.437346 -1.309610
v 1.318247 -0.556137 -1.309610
v 1.318248 1.000000 -1.309609
v -1.283047 -0.556137 -1.309610
v -1.283048 1.000000 -1.309610
v 1.000001 0.997189 -1.309609
v 1.318248 0.997189 -1.309609
v -1.000000 0.992106 -1.309610
v -1.283048 0.992106 -1.309610
v 0.877786 1.125672 -0.932225
v -0.877786 1.125672 -0.932225
v 0.877786 2.662462 -1.279527
v -0.877786 2.662462 -1.279527
v 0.201831 1.729725 -1.011364
v -0.201830 1.729725 -1.011364
v 0.201831 2.083080 -1.091220
v -0.201830 2.083080 -1.091220
v 0.903959 0.490585 -0.903958
v 0.903958 0.490585 0.903959
v -0.903958 0.490585 -0.903958
v -0.903959 0.490585 0.903958
v 0.216517 0.510334 -0.216517
v 0.216517 0.510334 0.216517
v -0.216517 0.510334 -0.216517
v -0.216517 0.510334 0.216517
vt 0.730296 0.206589
vt 0.691577 0.358443
vt 0.580463 0.371224
vt 0.500425 0.176195
vt 0.351992 0.547320
vt 0.351992 0.382158
vt 0.361129 0.391159
vt 0.360993 0.538183
vt 0.038290 0.142847
vt 0.048817 0.226965
vt 0.021871 0.230337
vt 0.005381 0.098579
vt 0.207630 0.121653
vt 0.218158 0.205771
vt 0.225643 0.071689
vt 0.242123 0.202772
vt 0.780396 0.135353
vt 0.717878 0.180415
vt 0.786208 0.087960
vt 0.797858 0.232726
vt 0.850987 0.139964
vt 0.986967 0.189447
vt 0.938343 0.300063
vt 0.798071 0.149994
vt 0.759501 0.208909
vt 0.749189 0.230198
vt 0.706401 0.362709
vt 0.763203 0.224553
vt 0.384637 0.058044
vt 0.412893 0.179493
vt 0.000140 0.056698
vt 0.027086 0.053326
vt 0.389189 0.016307
vt 0.406023 0.056536
vt 0.406095 0.057056
vt 0.555436 0.381878
vt 0.480152 0.205037
vt 0.599052 0.092594
vt 0.667382 0.000140
vt 0.458560 0.075401
vt 0.463227 0.015424
vt 0.524500 0.146671
vt 0.351992 0.547599
vt 0.514721 0.547599
vt 0.491563 0.551269
vt 0.375234 0.551264
vt 0.023023 0.021333
vt 0.027874 0.023343
vt 0.031076 0.050167
vt 0.857033 0.103238
vt 0.999860 0.154518
vt 0.197411 0.033024
vt 0.221271 0.030435
vt 0.039978 0.140983
vt 0.029759 0.052354
vt 0.437687 0.173566
vt 0.207630 0.121653
vt 0.196426 0.032132
vt 0.060149 0.024948
vt 0.061952 0.040833
vt 0.491495 0.567836
vt 0.448382 0.561678
vt 0.448386 0.557432
vt 0.352009 0.571501
vt 0.375166 0.567831
vt 0.192363 0.000140
vt 0.191574 0.030122
vt 0.188372 0.003298
vt 0.514739 0.571501
vt 0.100012 0.026423
vt 0.100396 0.029485
vt 0.159299 0.028518
vt 0.157497 0.012633
vt 0.119437 0.027042
vt 0.119053 0.023980
vt 0.418348 0.557422
vt 0.418344 0.561668
vt 0.046000 0.788264
vt 0.000140 0.762344
vt 0.046000 0.762344
vt 0.046000 0.573410
vt 0.046000 0.599330
vt 0.000140 0.599330
vt 0.188699 0.541161
vt 0.188699 0.567082
vt 0.188698 0.794593
vt 0.351712 0.794593
vt 0.351712 0.820513
vt 0.188698 0.820513
vt 0.685256 0.382274
vt 0.685318 0.534109
vt 0.672693 0.522177
vt 0.672042 0.394483
vt 0.010067 0.414406
vt 0.152765 0.382158
vt 0.833116 0.133936
vt 0.779088 0.221376
vt 0.436855 0.085659
vt 0.422441 0.052694
vt 0.461431 0.167253
vt 0.819179 0.124565
vt 0.833259 0.133644
vt 0.414354 0.008659
vt 0.834993 0.090594
vt 0.451138 0.193778
vt 0.617771 0.472986
vt 0.617995 0.443248
vt 0.517446 0.534087
vt 0.517434 0.382158
vt 0.530551 0.393910
vt 0.530149 0.521697
vt 0.584963 0.443012
vt 0.584657 0.472717
vt 0.508017 0.538318
vt 0.416771 0.482402
vt 0.452237 0.482540
vt 0.517154 0.547320
vt 0.517154 0.382158
vt 0.508152 0.391295
vt 0.416909 0.446937
vt 0.452374 0.447075
vn 0.0000 -1.0000 0.0000
vn -0.4848 0.8746 -0.0000
vn -0.0000 -0.0000 1.0000
vn 1.0000 -0.0000 0.0000
vn -1.0000 0.0000 -0.0000
vn 0.0000 0.0000 -1.0000
vn 0.4625 0.8866 0.0000
vn -0.0000 0.8643 0.5030
vn -0.0000 0.9996 0.0274
vn 0.0000 0.9998 -0.0207
vn -0.0000 0.9973 0.0736
vn 0.0000 0.8643 -0.5030
vn 0.9646 0.2637 0.0000
vn -0.9646 0.2637 -0.0000
vn 0.0000 0.9973 -0.0736
vn -0.4625 0.8866 -0.0000
vn -0.0000 0.9999 0.0132
vn 0.0000 0.9996 -0.0274
vn 0.1698 0.9855 0.0000
vn -0.1698 0.9855 -0.0000
vn 0.0000 1.0000 -0.0000
vn -0.0829 0.9966 -0.0000
vn 0.0000 0.9999 -0.0132
vn 0.0829 0.9966 0.0000
vn -0.1448 0.9895 -0.0000
vn 0.1448 0.9895 0.0000
vn -0.0000 0.9998 0.0207
vn 0.6089 0.1749 0.7737
vn 0.0000 -0.2204 -0.9754
vn 0.0000 0.5245 -0.8514
vn 0.0000 0.5284 -0.8490
vn 0.0825 0.2197 0.9721
vn -0.6089 0.1749 0.7737
vn -0.0000 0.7960 0.6052
vn -0.0000 -0.4747 0.8802
vn -0.0000 0.2204 0.9754
vn -0.0000 0.1299 0.9915
vn -0.0825 0.2197 0.9721
vn -0.0000 0.3091 0.9510
vn 0.0000 0.9996 -0.0287
vn 0.0000 0.8746 -0.4848
vn -0.0000 0.8746 0.4848
vn 0.4848 0.8746 0.0000
vn -0.0000 0.9996 0.0287
vn 0.0287 0.9996 0.0000
vn -0.0287 0.9996 -0.0000
usemtl SofaDiegoTM
s off
f 1/1/1 2/2/1 3/3/1 4/4/1
f 8/5/2 7/6/2 80/7/2 79/8/2
f 6/9/3 2/10/3 10/11/3 12/12/3
f 2/10/3 6/9/3 7/13/3 3/14/3
f 3/14/3 7/13/3 15/15/3 13/16/3
f 5/17/4 1/1/4 17/18/4 19/19/4
f 9/20/4 11/21/4 12/22/4 10/23/4
f 1/1/5 5/17/5 58/24/5 57/25/5
f 2/2/1 1/1/1 9/26/1 10/27/1
f 9/26/1 1/1/1 57/25/1 61/28/1
f 13/16/5 15/15/5 16/29/5 14/30/5
f 6/9/3 12/12/3 26/31/3 22/32/3
f 16/29/5 28/33/5 68/34/5 64/35/5
f 4/4/1 3/3/1 13/36/1 14/37/1
f 19/19/6 17/18/6 18/38/6 20/39/6
f 4/4/5 8/40/5 20/41/5 18/42/5
f 1/1/1 4/4/1 18/42/1 17/18/1
f 23/43/7 24/44/7 32/45/7 31/46/7
f 22/32/8 26/47/8 34/48/8 30/49/8
f 12/22/4 11/21/4 25/50/4 26/51/4
f 15/15/3 7/13/3 23/52/3 27/53/3
f 7/13/4 8/54/4 24/55/4 23/52/4
f 14/30/5 16/29/5 64/35/5 63/56/5
f 16/29/5 15/15/5 27/53/5 28/33/5
f 5/57/5 6/9/5 22/32/5 21/58/5
f 30/49/9 34/48/9 40/59/9 38/60/9
f 32/45/10 36/61/10 48/62/10 46/63/10
f 27/64/11 23/43/11 31/46/11 35/65/11
f 25/66/12 21/58/12 29/67/12 33/68/12
f 26/47/13 25/66/13 33/68/13 34/48/13
f 21/58/14 22/32/14 30/49/14 29/67/14
f 24/44/15 28/69/15 36/61/15 32/45/15
f 28/69/16 27/64/16 35/65/16 36/61/16
f 38/60/17 40/59/17 44/70/17 42/71/17
f 33/68/18 29/67/18 37/72/18 39/73/18
f 34/48/19 33/68/19 39/73/19 40/59/19
f 29/67/20 30/49/20 38/60/20 37/72/20
f 41/74/21 42/71/21 44/70/21 43/75/21
f 37/72/22 38/60/22 42/71/22 41/74/22
f 39/73/23 37/72/23 41/74/23 43/75/23
f 40/59/24 39/73/24 43/75/24 44/70/24
f 45/76/21 46/63/21 48/62/21 47/77/21
f 36/61/25 35/65/25 47/77/25 48/62/25
f 31/46/26 32/45/26 46/63/26 45/76/26
f 35/65/27 31/46/27 45/76/27 47/77/27
f 52/78/5 8/79/5 50/80/5
f 51/81/4 49/82/4 5/83/4
f 8/79/3 5/83/3 49/82/3 50/80/3
f 49/82/4 51/81/4 55/84/4 53/85/4
f 54/86/21 53/87/21 55/88/21 56/89/21
f 49/90/28 53/91/28 71/92/28 69/93/28
f 51/81/29 52/94/29 56/95/29 55/84/29
f 52/78/5 50/80/5 54/86/5 56/89/5
f 57/25/6 58/24/6 62/96/6 61/97/6
f 60/98/6 64/35/6 68/34/6 67/99/6
f 60/98/6 59/100/6 63/56/6 64/35/6
f 62/96/6 58/24/6 65/101/6 66/102/6
f 28/33/30 24/103/30 67/99/30 68/34/30
f 21/104/31 25/50/31 66/102/31 65/101/31
f 24/103/4 8/40/4 60/98/4 67/99/4
f 11/21/4 9/20/4 61/97/4 62/96/4
f 4/4/1 14/37/1 63/105/1 59/100/1
f 5/17/5 21/104/5 65/101/5 58/24/5
f 8/40/4 4/4/4 59/100/4 60/98/4
f 25/50/4 11/21/4 62/96/4 66/102/4
f 69/93/32 71/92/32 75/106/32 73/107/32
f 54/108/33 50/109/33 70/110/33 72/111/33
f 53/91/34 54/108/34 72/111/34 71/92/34
f 50/109/35 49/90/35 69/93/35 70/110/35
f 74/112/36 73/107/36 75/106/36 76/113/36
f 70/110/37 69/93/37 73/107/37 74/112/37
f 72/111/38 70/110/38 74/112/38 76/113/38
f 71/92/39 72/111/39 76/113/39 75/106/39
f 77/114/40 79/8/40 83/115/40 81/116/40
f 5/117/41 8/5/41 79/8/41 77/114/41
f 7/6/42 6/118/42 78/119/42 80/7/42
f 6/118/43 5/117/43 77/114/43 78/119/43
f 81/116/21 83/115/21 84/120/21 82/121/21
f 80/7/44 78/119/44 82/121/44 84/120/44
f 78/119/45 77/114/45 81/116/45 82/121/45
f 79/8/46 80/7/46 84/120/46 83/115/46
