# Blender v2.79 (sub 0) OBJ File: 'ceiling blend.blend'
# www.blender.org
mtllib ceiling blend.mtl
o Cube_Cube.001
v -10.000000 -0.020000 10.000000
v -10.000000 0.020000 10.000000
v -10.000000 -0.020000 -10.000000
v -10.000000 0.020000 -10.000000
v 10.000000 -0.020000 10.000000
v 10.000000 0.020000 10.000000
v 10.000000 -0.020000 -10.000000
v 10.000000 0.020000 -10.000000
v -10.000000 -0.020000 9.485893
v -10.000000 0.020000 9.485893
v 10.000000 -0.020000 9.485893
v 10.000000 0.020000 9.485893
v -10.000000 0.020000 3.264727
v 10.000000 -0.020000 3.264727
v -10.000000 -0.020000 3.264727
v 10.000000 0.020000 3.264727
v -3.225430 -0.020000 -10.000000
v -2.872598 0.020000 -10.000000
v -3.225430 -0.020000 10.000000
v -2.872598 0.020000 10.000000
v -2.872598 0.020000 9.485893
v -2.883127 -0.020000 9.485893
v -2.883127 -0.020000 3.264727
v -2.872598 0.020000 3.264727
v 3.409984 0.020000 -10.000000
v 3.409984 -0.020000 10.000000
v 3.409984 0.020000 9.485893
v 3.409984 0.020000 3.264727
v 3.409984 -0.020000 -10.000000
v 3.409984 0.020000 10.000000
v 3.409984 -0.020000 9.485893
v 3.409984 -0.020000 3.264727
vt 0.683019 0.204780
vt 0.683019 0.000121
vt 0.818756 0.000121
vt 0.818756 0.204780
vt 0.137345 0.204780
vt 0.137345 0.000121
vt 0.204780 0.000121
vt 0.204780 0.204780
vt 0.404178 0.204780
vt 0.404178 0.000121
vt 0.409439 0.000121
vt 0.409439 0.204780
vt 0.544774 0.204780
vt 0.541163 0.000121
vt 0.614097 0.000121
vt 0.614098 0.204780
vt 0.137344 0.404420
vt 0.204780 0.404420
vt 0.204780 0.409681
vt 0.137344 0.409681
vt 0.277956 0.210283
vt 0.205022 0.210283
vt 0.205022 0.205022
vt 0.277956 0.205022
vt 0.277956 0.273944
vt 0.205022 0.273944
vt 0.137344 0.340759
vt 0.204780 0.340759
vt 0.340517 0.204780
vt 0.340517 0.000121
vt 0.619358 0.000121
vt 0.619358 0.204780
vt 0.137344 0.205022
vt 0.204780 0.205022
vt 0.277956 0.409681
vt 0.205022 0.409681
vt 0.342245 0.409681
vt 0.342245 0.273944
vt 0.000121 0.205022
vt 0.069445 0.205022
vt 0.072947 0.340759
vt 0.000121 0.340759
vt 0.072947 0.404420
vt 0.000121 0.404420
vt 0.999879 0.000121
vt 0.999879 0.176180
vt 0.856772 0.697013
vt 0.837723 0.721439
vt 0.342245 0.210283
vt 0.342245 0.205022
vt 0.069444 0.409681
vt 0.000121 0.409681
vt 0.476874 0.204780
vt 0.476874 0.000121
vt 0.000121 0.204780
vt 0.000121 0.000122
vt 0.073055 0.000122
vt 0.069445 0.204780
vt 0.409680 0.210283
vt 0.409680 0.205022
vt 0.409680 0.273944
vt 0.409680 0.409681
vt 0.818998 0.843080
vt 0.855678 0.741494
vt 0.955462 0.237056
vt 0.928775 0.176684
vn -1.0000 0.0000 0.0000
vn 0.0000 0.0000 -1.0000
vn 1.0000 0.0000 0.0000
vn 0.0000 0.0000 1.0000
vn 0.0000 -1.0000 0.0000
vn 0.0000 1.0000 0.0000
vn 0.9671 -0.2546 0.0000
usemtl Material.001
s off
f 15/1/1 13/2/1 4/3/1 3/4/1
f 29/5/2 25/6/2 8/7/2 7/8/2
f 11/9/3 12/10/3 6/11/3 5/12/3
f 19/13/4 20/14/4 2/15/4 1/16/4
f 31/17/5 11/18/5 5/19/5 26/20/5
f 21/21/6 10/22/6 2/23/6 20/24/6
f 24/25/6 13/26/6 10/22/6 21/21/6
f 32/27/5 14/28/5 11/18/5 31/17/5
f 14/29/3 16/30/3 12/10/3 11/9/3
f 1/16/1 2/15/1 10/31/1 9/32/1
f 7/8/3 8/7/3 16/30/3 14/29/3
f 29/33/5 7/34/5 14/28/5 32/27/5
f 18/35/6 4/36/6 13/26/6 24/25/6
f 9/32/1 10/31/1 13/2/1 15/1/1
f 25/37/6 18/35/6 24/25/6 28/38/6
f 3/39/5 17/40/5 23/41/5 15/42/5
f 15/42/5 23/41/5 22/43/5 9/44/5
f 22/45/7 23/46/7 24/47/7 21/48/7
f 27/49/6 21/21/6 20/24/6 30/50/6
f 9/44/5 22/43/5 19/51/5 1/52/5
f 26/53/4 30/54/4 20/14/4 19/13/4
f 3/55/2 4/56/2 18/57/2 17/58/2
f 5/12/4 6/11/4 30/54/4 26/53/4
f 12/59/6 27/49/6 30/50/6 6/60/6
f 16/61/6 28/38/6 27/49/6 12/59/6
f 8/62/6 25/37/6 28/38/6 16/61/6
f 17/40/5 29/33/5 32/27/5 23/41/5
f 27/63/1 28/64/1 32/65/1 31/66/1
f 22/43/5 31/17/5 26/20/5 19/51/5
f 17/58/2 18/57/2 25/6/2 29/5/2
f 31/66/2 22/45/2 21/48/2 27/63/2
f 32/65/4 28/64/4 24/47/4 23/46/4
