# Blender v2.79 (sub 0) OBJ File: 'VCR.blend'
# www.blender.org
mtllib VCR.mtl
o Cube_Cube.001
v -0.500000 0.491331 0.600000
v -0.500000 0.791331 0.600000
v -0.500000 0.491331 -0.600000
v -0.500000 0.791331 -0.600000
v 0.500000 0.491331 0.600000
v 0.500000 0.791331 0.600000
v 0.500000 0.491331 -0.600000
v 0.500000 0.791331 -0.600000
vt 0.749950 0.000100
vt 0.749950 0.250050
vt 0.500000 0.250050
vt 0.500000 0.000100
vt 0.250050 0.250050
vt 0.250050 0.000100
vt 0.000100 0.250050
vt 0.000100 0.000100
vt 0.999900 0.000100
vt 0.999900 0.250050
vt 0.500200 0.500200
vt 0.250250 0.500200
vt 0.250250 0.250250
vt 0.500200 0.250250
vt 0.250050 0.500200
vt 0.000100 0.500200
vt 0.000100 0.250250
vt 0.250050 0.250250
vn -1.0000 0.0000 0.0000
vn 0.0000 0.0000 -1.0000
vn 1.0000 0.0000 0.0000
vn 0.0000 0.0000 1.0000
vn 0.0000 -1.0000 0.0000
vn 0.0000 1.0000 0.0000
usemtl Material.001
s off
f 1/1/1 2/2/1 4/3/1 3/4/1
f 3/4/2 4/3/2 8/5/2 7/6/2
f 7/6/3 8/5/3 6/7/3 5/8/3
f 5/9/4 6/10/4 2/2/4 1/1/4
f 3/11/5 7/12/5 5/13/5 1/14/5
f 8/15/6 4/16/6 2/17/6 6/18/6
