# Blender v2.79 (sub 0) OBJ File: 'lampShade.blend'
# www.blender.org
mtllib lampShade.mtl
o Cylinder
v 0.173083 1.165526 -1.287417
v 0.046284 1.165526 -1.293646
v 0.046284 1.057117 -1.467778
v 0.046283 2.884713 -0.835546
v 0.190151 1.057117 -1.460710
v 0.128181 2.884713 -0.831523
v 0.332633 1.057117 -1.439575
v 0.209290 2.884713 -0.819492
v 0.472357 1.057117 -1.404576
v 0.288830 2.884713 -0.799568
v 0.607978 1.057117 -1.356050
v 0.366033 2.884713 -0.771944
v 0.738189 1.057117 -1.294464
v 0.440157 2.884713 -0.736886
v 0.861737 1.057117 -1.220413
v 0.510488 2.884713 -0.694731
v 0.977432 1.057117 -1.134608
v 0.576348 2.884713 -0.645886
v 1.084159 1.057117 -1.037876
v 0.637104 2.884713 -0.590820
v 1.180891 1.057117 -0.931149
v 0.692169 2.884713 -0.530065
v 1.266696 1.057117 -0.815454
v 0.741015 2.884713 -0.464205
v 1.340748 1.057117 -0.691906
v 0.783169 2.884713 -0.393874
v 1.402333 1.057117 -0.561694
v 0.818227 2.884713 -0.319750
v 1.450859 1.057117 -0.426073
v 0.845851 2.884713 -0.242546
v 1.485858 1.057117 -0.286349
v 0.865775 2.884713 -0.163007
v 1.506994 1.057117 -0.143867
v 0.877806 2.884713 -0.081898
v 1.514061 1.057117 0.000000
v 0.881830 2.884713 0.000000
v 1.506994 1.057117 0.143868
v 0.877806 2.884713 0.081898
v 1.485858 1.057117 0.286349
v 0.865775 2.884713 0.163007
v 1.450859 1.057117 0.426074
v 0.845851 2.884713 0.242547
v 1.402333 1.057117 0.561695
v 0.818227 2.884713 0.319750
v 1.340748 1.057117 0.691906
v 0.783169 2.884713 0.393874
v 1.266696 1.057117 0.815454
v 0.741015 2.884713 0.464205
v 1.180891 1.057117 0.931149
v 0.692169 2.884713 0.530065
v 1.084159 1.057117 1.037876
v 0.637104 2.884713 0.590821
v 0.977431 1.057117 1.134608
v 0.576348 2.884713 0.645886
v 0.861737 1.057117 1.220413
v 0.510488 2.884713 0.694732
v 0.738189 1.057117 1.294465
v 0.440157 2.884713 0.736886
v 0.607977 1.057117 1.356050
v 0.366033 2.884713 0.771945
v 0.472356 1.057117 1.404576
v 0.288829 2.884713 0.799568
v 0.332632 1.057117 1.439575
v 0.209290 2.884713 0.819492
v 0.190150 1.057117 1.460710
v 0.128181 2.884713 0.831523
v 0.046283 1.057117 1.467777
v 0.046283 2.884713 0.835546
v -0.097585 1.057117 1.460710
v -0.035615 2.884713 0.831523
v -0.240067 1.057117 1.439574
v -0.116724 2.884713 0.819491
v -0.379791 1.057117 1.404575
v -0.196264 2.884713 0.799568
v -0.515412 1.057117 1.356049
v -0.273467 2.884713 0.771944
v -0.645623 1.057117 1.294464
v -0.347591 2.884713 0.736886
v -0.769171 1.057117 1.220412
v -0.417922 2.884713 0.694731
v -0.884866 1.057117 1.134606
v -0.483782 2.884713 0.645886
v -0.991593 1.057117 1.037874
v -0.544538 2.884713 0.590820
v -1.088325 1.057117 0.931147
v -0.599603 2.884713 0.530064
v -1.174129 1.057117 0.815453
v -0.648448 2.884713 0.464204
v -1.248181 1.057117 0.691905
v -0.690603 2.884713 0.393873
v -1.309766 1.057117 0.561694
v -0.725661 2.884713 0.319750
v -1.358292 1.057117 0.426073
v -0.753285 2.884713 0.242546
v -1.393291 1.057117 0.286349
v -0.773208 2.884713 0.163007
v -1.414426 1.057117 0.143868
v -0.785240 2.884713 0.081898
v -1.421494 1.057117 0.000001
v -0.789263 2.884713 0.000000
v -1.414426 1.057117 -0.143866
v -0.785240 2.884713 -0.081897
v -1.393291 1.057117 -0.286348
v -0.773208 2.884713 -0.163006
v -1.358292 1.057117 -0.426072
v -0.753285 2.884713 -0.242545
v -1.309767 1.057117 -0.561693
v -0.725661 2.884713 -0.319749
v -1.248181 1.057117 -0.691904
v -0.690603 2.884713 -0.393873
v -1.174130 1.057117 -0.815452
v -0.648449 2.884713 -0.464204
v -1.088325 1.057117 -0.931146
v -0.599604 2.884713 -0.530064
v -0.991594 1.057117 -1.037874
v -0.544538 2.884713 -0.590819
v -0.884867 1.057117 -1.134605
v -0.483783 2.884713 -0.645885
v -0.769173 1.057117 -1.220411
v -0.417923 2.884713 -0.694730
v -0.645625 1.057117 -1.294463
v -0.347592 2.884713 -0.736885
v -0.515414 1.057117 -1.356048
v -0.273469 2.884713 -0.771943
v -0.379794 1.057117 -1.404574
v -0.196265 2.884713 -0.799567
v -0.240070 1.057117 -1.439574
v -0.116726 2.884713 -0.819491
v -0.097589 1.057117 -1.460710
v -0.035617 2.884713 -0.831523
v 0.118465 2.776304 -0.732874
v 0.046283 2.776304 -0.736420
v 0.298662 1.165526 -1.268789
v 0.189952 2.776304 -0.722270
v 0.421809 1.165526 -1.237943
v 0.260055 2.776304 -0.704710
v 0.541341 1.165526 -1.195173
v 0.328099 2.776304 -0.680364
v 0.656104 1.165526 -1.140894
v 0.393429 2.776304 -0.649465
v 0.764995 1.165526 -1.075628
v 0.455417 2.776304 -0.612311
v 0.866964 1.165526 -1.000002
v 0.513463 2.776304 -0.569261
v 0.961030 1.165526 -0.914746
v 0.567011 2.776304 -0.520728
v 1.046286 1.165526 -0.820681
v 0.615544 2.776304 -0.467180
v 1.121911 1.165526 -0.718712
v 0.658595 2.776304 -0.409133
v 1.187178 1.165526 -0.609821
v 0.695748 2.776304 -0.347146
v 1.241457 1.165526 -0.495057
v 0.726647 2.776304 -0.281816
v 1.284226 1.165526 -0.375526
v 0.750994 2.776304 -0.213771
v 1.315073 1.165526 -0.252378
v 0.768554 2.776304 -0.143668
v 1.333701 1.165526 -0.126799
v 0.779158 2.776304 -0.072182
v 1.339930 1.165526 0.000000
v 0.782704 2.776304 0.000000
v 1.333701 1.165526 0.126800
v 0.779158 2.776304 0.072182
v 1.315073 1.165526 0.252378
v 0.768554 2.776304 0.143669
v 1.284226 1.165526 0.375526
v 0.750993 2.776304 0.213772
v 1.241457 1.165526 0.495057
v 0.726647 2.776304 0.281816
v 1.187178 1.165526 0.609821
v 0.695748 2.776304 0.347146
v 1.121911 1.165526 0.718712
v 0.658594 2.776304 0.409134
v 1.046285 1.165526 0.820681
v 0.615544 2.776304 0.467180
v 0.961029 1.165526 0.914746
v 0.567011 2.776304 0.520728
v 0.866964 1.165526 1.000002
v 0.513463 2.776304 0.569261
v 0.764994 1.165526 1.075628
v 0.455416 2.776304 0.612312
v 0.656104 1.165526 1.140894
v 0.393429 2.776304 0.649465
v 0.541340 1.165526 1.195174
v 0.328099 2.776304 0.680364
v 0.421809 1.165526 1.237942
v 0.260054 2.776304 0.704711
v 0.298661 1.165526 1.268789
v 0.189951 2.776304 0.722270
v 0.173082 1.165526 1.287417
v 0.118465 2.776304 0.732874
v 0.046283 1.165526 1.293646
v 0.046283 2.776304 0.736420
v -0.080517 1.165526 1.287417
v -0.025899 2.776304 0.732874
v -0.206095 1.165526 1.268789
v -0.097386 2.776304 0.722270
v -0.329243 1.165526 1.237942
v -0.167489 2.776304 0.704710
v -0.448774 1.165526 1.195173
v -0.235533 2.776304 0.680364
v -0.563538 1.165526 1.140893
v -0.300864 2.776304 0.649465
v -0.672429 1.165526 1.075627
v -0.362851 2.776304 0.612311
v -0.774398 1.165526 1.000001
v -0.420897 2.776304 0.569260
v -0.868463 1.165526 0.914745
v -0.474445 2.776304 0.520727
v -0.953719 1.165526 0.820679
v -0.522978 2.776304 0.467180
v -1.029344 1.165526 0.718711
v -0.566028 2.776304 0.409133
v -1.094611 1.165526 0.609820
v -0.603182 2.776304 0.347146
v -1.148890 1.165526 0.495057
v -0.634081 2.776304 0.281816
v -1.191659 1.165526 0.375525
v -0.658427 2.776304 0.213772
v -1.222506 1.165526 0.252378
v -0.675987 2.776304 0.143669
v -1.241133 1.165526 0.126800
v -0.686591 2.776304 0.072182
v -1.247363 1.165526 0.000001
v -0.690137 2.776304 0.000000
v -1.241133 1.165526 -0.126799
v -0.686591 2.776304 -0.072181
v -1.222506 1.165526 -0.252377
v -0.675987 2.776304 -0.143668
v -1.191659 1.165526 -0.375524
v -0.658428 2.776304 -0.213771
v -1.148890 1.165526 -0.495056
v -0.634081 2.776304 -0.281815
v -1.094611 1.165526 -0.609819
v -0.603182 2.776304 -0.347145
v -1.029345 1.165526 -0.718710
v -0.566029 2.776304 -0.409132
v -0.953720 1.165526 -0.820679
v -0.522978 2.776304 -0.467179
v -0.868464 1.165526 -0.914744
v -0.474446 2.776304 -0.520727
v -0.774399 1.165526 -1.000000
v -0.420898 2.776304 -0.569260
v -0.672430 1.165526 -1.075626
v -0.362852 2.776304 -0.612310
v -0.563540 1.165526 -1.140893
v -0.300865 2.776304 -0.649464
v -0.448777 1.165526 -1.195172
v -0.235535 2.776304 -0.680363
v -0.329246 1.165526 -1.237941
v -0.167490 2.776304 -0.704710
v -0.206098 1.165526 -1.268789
v -0.097388 2.776304 -0.722270
v -0.080520 1.165526 -1.287417
v -0.025901 2.776304 -0.732874
v 0.760864 2.776304 0.072182
v 0.757317 2.776304 0.000000
v 0.760864 2.776304 -0.072181
v 0.118465 2.776304 0.710098
v 0.046283 2.776304 0.706552
v -0.025901 2.776304 0.710098
v -0.027545 2.776304 0.000000
v -0.023999 2.776304 -0.072181
v -0.023999 2.776304 0.072182
v 0.121247 2.776304 -0.072181
v 0.117701 2.776304 0.000000
v 0.121247 2.776304 0.072182
v -0.023999 2.776304 0.698304
v 0.121247 2.776304 0.698304
v -0.023999 2.776304 -0.516235
v 0.121247 2.776304 -0.516235
vn -0.6334 -0.6744 -0.3796
vn 0.4959 -0.6744 -0.5471
vn -0.0464 -0.3266 0.9440
vn 0.1285 0.8486 -0.5131
vn -0.0464 0.3266 -0.9440
vn -0.1387 -0.3266 0.9349
vn 0.5931 -0.6744 0.4399
vn -0.1387 0.3266 -0.9349
vn -0.2297 -0.3266 0.9168
vn 0.4981 0.8486 -0.1782
vn -0.2297 0.3266 -0.9168
vn -0.3184 -0.3266 0.8899
vn -0.4537 0.8486 -0.2719
vn -0.3184 0.3266 -0.8899
vn -0.4041 -0.3266 0.8544
vn -0.0362 -0.6744 0.7375
vn -0.4041 0.3266 -0.8544
vn -0.4859 -0.3266 0.8107
vn 0.4249 0.8486 0.3151
vn -0.4859 0.3266 -0.8107
vn -0.5630 -0.3266 0.7592
vn 0.1083 -0.6744 -0.7304
vn -0.5630 0.3266 -0.7592
vn -0.6347 -0.3266 0.7003
vn -0.0362 -0.6744 -0.7375
vn -0.6347 0.3266 -0.7003
vn -0.7003 -0.3266 0.6347
vn -0.6334 -0.6744 0.3796
vn -0.7003 0.3266 -0.6347
vn -0.7592 -0.3266 0.5630
vn -0.0260 0.8486 0.5283
vn -0.7592 0.3266 -0.5630
vn -0.8107 -0.3266 0.4859
vn 0.6675 -0.6744 -0.3157
vn -0.8107 0.3266 -0.4859
vn -0.8544 -0.3266 0.4041
vn -0.0260 0.8486 -0.5283
vn -0.8544 0.3266 -0.4041
vn -0.8899 -0.3266 0.3184
vn 0.0776 0.8486 -0.5232
vn -0.8899 0.3266 -0.3184
vn -0.9168 -0.3266 0.2297
vn -0.6675 -0.6744 -0.3157
vn -0.9168 0.3266 -0.2297
vn -0.9349 -0.3266 0.1387
vn -0.4537 0.8486 0.2719
vn -0.9349 0.3266 -0.1387
vn -0.9440 -0.3266 0.0464
vn 0.6334 -0.6744 0.3796
vn -0.9440 0.3266 -0.0464
vn -0.9440 -0.3266 -0.0464
vn 0.4782 0.8486 -0.2262
vn -0.9440 0.3266 0.0464
vn -0.9349 -0.3266 -0.1387
vn -0.1083 -0.6744 -0.7304
vn -0.9349 0.3266 0.1387
vn -0.9168 -0.3266 -0.2297
vn -0.4782 0.8486 -0.2262
vn -0.9168 0.3266 0.2297
vn -0.8899 -0.3266 -0.3184
vn 0.0362 -0.6744 0.7375
vn -0.8899 0.3266 0.3184
vn -0.8544 -0.3266 -0.4041
vn 0.4537 0.8486 0.2719
vn -0.8544 0.3266 0.4041
vn -0.8107 -0.3266 -0.4859
vn -0.0776 0.8486 -0.5232
vn -0.8107 0.3266 0.4859
vn -0.7592 -0.3266 -0.5630
vn -0.5931 -0.6744 0.4399
vn -0.7592 0.3266 0.5630
vn -0.7003 -0.3266 -0.6347
vn 0.0362 -0.6744 -0.7375
vn -0.7003 0.3266 0.6347
vn -0.6347 -0.3266 -0.7003
vn 0.0260 0.8486 0.5283
vn -0.6347 0.3266 0.7003
vn -0.5630 -0.3266 -0.7592
vn 0.6334 -0.6744 -0.3796
vn -0.5630 0.3266 0.7592
vn -0.4859 -0.3266 -0.8107
vn -0.6952 -0.6744 -0.2488
vn -0.4859 0.3266 0.8107
vn -0.4041 -0.3266 -0.8544
vn -0.4249 0.8486 0.3151
vn -0.4041 0.3266 0.8544
vn -0.3184 -0.3266 -0.8899
vn 0.6675 -0.6744 0.3157
vn -0.3184 0.3266 0.8899
vn -0.2297 -0.3266 -0.9168
vn 0.4537 0.8486 -0.2719
vn -0.2297 0.3266 0.9168
vn -0.1387 -0.3266 -0.9349
vn -0.1794 -0.6744 -0.7163
vn -0.1387 0.3266 0.9349
vn -0.0464 -0.3266 -0.9440
vn 0.0260 0.8486 -0.5283
vn -0.0464 0.3266 0.9440
vn 0.0464 -0.3266 -0.9440
vn -0.4981 0.8486 -0.1782
vn 0.0464 0.3266 0.9440
vn 0.1387 -0.3266 -0.9349
vn 0.1083 -0.6744 0.7304
vn 0.1387 0.3266 0.9349
vn 0.2297 -0.3266 -0.9168
vn 0.4782 0.8486 0.2262
vn 0.2297 0.3266 0.9168
vn 0.3184 -0.3266 -0.8899
vn -0.1285 0.8486 -0.5131
vn 0.3184 0.3266 0.8899
vn 0.4041 -0.3266 -0.8544
vn -0.5471 -0.6744 0.4959
vn 0.4041 0.3266 0.8544
vn 0.4859 -0.3266 -0.8107
vn 0.0776 0.8486 0.5233
vn 0.4859 0.3266 0.8107
vn 0.5630 -0.3266 -0.7592
vn 0.5931 -0.6744 -0.4399
vn 0.5630 0.3266 0.7592
vn 0.6347 -0.3266 -0.7003
vn -0.7163 -0.6744 -0.1794
vn 0.6347 0.3266 0.7003
vn 0.7003 -0.3266 -0.6347
vn -0.3919 0.8486 0.3552
vn 0.7003 0.3266 0.6347
vn 0.7592 -0.3266 -0.5630
vn 0.6952 -0.6744 0.2488
vn 0.7592 0.3266 0.5630
vn 0.8107 -0.3266 -0.4859
vn 0.4249 0.8486 -0.3151
vn 0.8107 0.3266 0.4859
vn 0.8544 -0.3266 -0.4041
vn -0.2488 -0.6744 -0.6952
vn 0.8544 0.3266 0.4041
vn 0.8899 -0.3266 -0.3184
vn -0.5131 0.8486 -0.1285
vn 0.8899 0.3266 0.3184
vn 0.9168 -0.3266 -0.2297
vn 0.1794 -0.6744 0.7163
vn 0.9168 0.3266 0.2297
vn 0.9349 -0.3266 -0.1387
vn 0.4981 0.8486 0.1782
vn 0.9349 0.3266 0.1387
vn 0.9440 -0.3266 -0.0464
vn -0.1782 0.8486 -0.4981
vn 0.9440 0.3266 0.0464
vn 0.9440 -0.3266 0.0464
vn -0.4959 -0.6744 0.5471
vn 0.9440 0.3266 -0.0464
vn 0.9349 -0.3266 0.1387
vn 0.1285 0.8486 0.5131
vn 0.9349 0.3266 -0.1387
vn 0.9168 -0.3266 0.2297
vn 0.5471 -0.6744 -0.4959
vn 0.9168 0.3266 -0.2297
vn 0.8899 -0.3266 0.3184
vn -0.7304 -0.6744 -0.1083
vn 0.8899 0.3266 -0.3184
vn 0.8544 -0.3266 0.4041
vn -0.3552 0.8486 0.3919
vn 0.8544 0.3266 -0.4041
vn 0.8107 -0.3266 0.4859
vn 0.7163 -0.6744 0.1794
vn 0.8107 0.3266 -0.4859
vn 0.7592 -0.3266 0.5630
vn 0.3919 0.8486 -0.3552
vn 0.7592 0.3266 -0.5630
vn 0.7003 -0.3266 0.6347
vn -0.3157 -0.6744 -0.6675
vn 0.7003 0.3266 -0.6347
vn 0.6347 -0.3266 0.7003
vn -0.5233 0.8486 -0.0776
vn 0.6347 0.3266 -0.7003
vn 0.5630 -0.3266 0.7592
vn 0.2488 -0.6744 0.6952
vn 0.5630 0.3266 -0.7592
vn 0.4859 -0.3266 0.8107
vn 0.5131 0.8486 0.1285
vn 0.4859 0.3266 -0.8107
vn 0.4041 -0.3266 0.8544
vn -0.2262 0.8486 -0.4782
vn 0.4041 0.3266 -0.8544
vn 0.3184 -0.3266 0.8899
vn -0.4399 -0.6744 0.5931
vn 0.3184 0.3266 -0.8899
vn 0.2297 -0.3266 0.9168
vn 0.1387 0.3266 -0.9349
vn 0.2297 0.3266 -0.9168
vn 0.1387 -0.3266 0.9349
vn -0.4782 0.8486 0.2262
vn 0.1782 0.8486 0.4981
vn 0.0464 -0.3266 0.9440
vn 0.0464 0.3266 -0.9440
vn 0.6952 -0.6744 -0.2488
vn -0.0776 0.8486 0.5233
vn -0.6675 -0.6744 0.3157
vn 0.1794 -0.6744 -0.7163
vn 0.3919 0.8486 0.3552
vn -0.1083 -0.6744 0.7304
vn -0.4249 0.8486 -0.3151
vn 0.5131 0.8486 -0.1285
vn 0.5471 -0.6744 0.4959
vn -0.4981 0.8486 0.1782
vn -0.5931 -0.6744 -0.4399
vn 0.1782 0.8486 -0.4981
vn 0.7163 -0.6744 -0.1794
vn -0.1285 0.8486 0.5131
vn -0.6952 -0.6744 0.2488
vn 0.2488 -0.6744 -0.6952
vn 0.3552 0.8486 0.3919
vn -0.1794 -0.6744 0.7163
vn -0.3919 0.8486 -0.3552
vn 0.5233 0.8486 -0.0776
vn 0.4959 -0.6744 0.5471
vn -0.5131 0.8486 0.1285
vn -0.5471 -0.6744 -0.4959
vn 0.2262 0.8486 -0.4782
vn 0.7304 -0.6744 -0.1083
vn -0.1782 0.8486 0.4981
vn -0.7163 -0.6744 0.1794
vn 0.3157 -0.6744 -0.6675
vn 0.3151 0.8486 0.4249
vn -0.2488 -0.6744 0.6952
vn -0.3552 0.8486 -0.3919
vn 0.5283 0.8486 -0.0260
vn 0.4399 -0.6744 0.5931
vn -0.5232 0.8486 0.0776
vn -0.4959 -0.6744 -0.5471
vn 0.2719 0.8486 -0.4537
vn 0.7375 -0.6744 -0.0362
vn -0.2262 0.8486 0.4782
vn -0.7304 -0.6744 0.1083
vn 0.3796 -0.6744 -0.6334
vn 0.2719 0.8486 0.4537
vn -0.3157 -0.6744 0.6675
vn -0.3151 0.8486 -0.4249
vn 0.5283 0.8486 0.0260
vn 0.3796 -0.6744 0.6334
vn -0.5283 0.8486 0.0260
vn -0.4399 -0.6744 -0.5931
vn 0.3151 0.8486 -0.4249
vn 0.7375 -0.6744 0.0362
vn -0.2719 0.8486 0.4537
vn -0.7375 -0.6744 0.0362
vn 0.4399 -0.6744 -0.5931
vn 0.2262 0.8486 0.4782
vn -0.3796 -0.6744 0.6333
vn -0.2719 0.8486 -0.4537
vn 0.5233 0.8486 0.0776
vn 0.3157 -0.6744 0.6675
vn -0.5283 0.8486 -0.0260
vn -0.3796 -0.6744 -0.6333
vn 0.3552 0.8486 -0.3919
vn 0.7304 -0.6744 0.1083
vn -0.3151 0.8486 0.4249
vn -0.7375 -0.6744 -0.0362
vn 0.0000 -1.0000 0.0000
vn 0.0000 1.0000 0.0000
usemtl Material.001
s off
f 110//1 112//1 238//1 236//1
f 18//2 20//2 146//2 144//2
f 3//3 5//3 6//3 4//3
f 9//4 7//4 133//4 135//4
f 255//5 256//5 132//5 2//5
f 5//6 7//6 8//6 6//6
f 48//7 50//7 176//7 174//7
f 253//8 254//8 256//8 255//8
f 7//9 9//9 10//9 8//9
f 29//10 27//10 153//10 155//10
f 251//11 252//11 254//11 253//11
f 9//12 11//12 12//12 10//12
f 111//13 109//13 235//13 237//13
f 249//14 250//14 252//14 251//14
f 11//15 13//15 14//15 12//15
f 68//16 70//16 196//16 194//16
f 247//17 248//17 250//17 249//17
f 13//18 15//18 16//18 14//18
f 49//19 47//19 173//19 175//19
f 245//20 246//20 248//20 247//20
f 15//21 17//21 18//21 16//21
f 6//22 8//22 134//22 131//22
f 243//23 244//23 246//23 245//23
f 17//24 19//24 20//24 18//24
f 130//25 4//25 132//25 256//25
f 241//26 242//26 244//26 243//26
f 19//27 21//27 22//27 20//27
f 88//28 90//28 216//28 214//28
f 239//29 240//29 242//29 241//29
f 21//30 23//30 24//30 22//30
f 69//31 67//31 193//31 195//31
f 237//32 238//32 240//32 239//32
f 23//33 25//33 26//33 24//33
f 26//34 28//34 154//34 152//34
f 235//35 236//35 238//35 237//35
f 25//36 27//36 28//36 26//36
f 3//37 129//37 255//37 2//37
f 233//38 234//38 236//38 235//38
f 27//39 29//39 30//39 28//39
f 7//40 5//40 1//40 133//40
f 231//41 232//41 234//41 233//41
f 29//42 31//42 32//42 30//42
f 108//43 110//43 236//43 234//43
f 229//44 230//44 232//44 231//44
f 31//45 33//45 34//45 32//45
f 89//46 87//46 213//46 215//46
f 227//47 228//47 230//47 229//47
f 33//48 35//48 36//48 34//48
f 46//49 48//49 174//49 172//49
f 225//50 226//50 228//50 227//50
f 35//51 37//51 38//51 36//51
f 27//52 25//52 151//52 153//52
f 223//53 224//53 226//53 225//53
f 37//54 39//54 40//54 38//54
f 128//55 130//55 256//55 254//55
f 221//56 222//56 224//56 223//56
f 39//57 41//57 42//57 40//57
f 109//58 107//58 233//58 235//58
f 219//59 220//59 222//59 221//59
f 41//60 43//60 44//60 42//60
f 66//61 68//61 194//61 192//61
f 217//62 218//62 220//62 219//62
f 43//63 45//63 46//63 44//63
f 47//64 45//64 171//64 173//64
f 215//65 216//65 218//65 217//65
f 45//66 47//66 48//66 46//66
f 129//67 127//67 253//67 255//67
f 213//68 214//68 216//68 215//68
f 47//69 49//69 50//69 48//69
f 86//70 88//70 214//70 212//70
f 211//71 212//71 214//71 213//71
f 49//72 51//72 52//72 50//72
f 4//73 6//73 131//73 132//73
f 209//74 210//74 212//74 211//74
f 51//75 53//75 54//75 52//75
f 67//76 65//76 191//76 193//76
f 207//77 208//77 210//77 209//77
f 53//78 55//78 56//78 54//78
f 24//79 26//79 152//79 150//79
f 205//80 206//80 208//80 207//80
f 55//81 57//81 58//81 56//81
f 106//82 108//82 234//82 232//82
f 203//83 204//83 206//83 205//83
f 57//84 59//84 60//84 58//84
f 87//85 85//85 211//85 213//85
f 201//86 202//86 204//86 203//86
f 59//87 61//87 62//87 60//87
f 44//88 46//88 172//88 170//88
f 199//89 200//89 202//89 201//89
f 61//90 63//90 64//90 62//90
f 25//91 23//91 149//91 151//91
f 197//92 198//92 200//92 199//92
f 63//93 65//93 66//93 64//93
f 126//94 128//94 254//94 252//94
f 195//95 196//95 198//95 197//95
f 65//96 67//96 68//96 66//96
f 5//97 3//97 2//97 1//97
f 193//98 194//98 196//98 195//98
f 67//99 69//99 70//99 68//99
f 107//100 105//100 231//100 233//100
f 191//101 192//101 194//101 193//101
f 69//102 71//102 72//102 70//102
f 64//103 66//103 192//103 190//103
f 189//104 190//104 192//104 191//104
f 71//105 73//105 74//105 72//105
f 45//106 43//106 169//106 171//106
f 187//107 188//107 190//107 189//107
f 73//108 75//108 76//108 74//108
f 127//109 125//109 251//109 253//109
f 185//110 186//110 188//110 187//110
f 75//111 77//111 78//111 76//111
f 84//112 86//112 212//112 210//112
f 183//113 184//113 186//113 185//113
f 77//114 79//114 80//114 78//114
f 65//115 63//115 189//115 191//115
f 181//116 182//116 184//116 183//116
f 79//117 81//117 82//117 80//117
f 22//118 24//118 150//118 148//118
f 179//119 180//119 182//119 181//119
f 81//120 83//120 84//120 82//120
f 104//121 106//121 232//121 230//121
f 177//122 178//122 180//122 179//122
f 83//123 85//123 86//123 84//123
f 85//124 83//124 209//124 211//124
f 175//125 176//125 178//125 177//125
f 85//126 87//126 88//126 86//126
f 42//127 44//127 170//127 168//127
f 173//128 174//128 176//128 175//128
f 87//129 89//129 90//129 88//129
f 23//130 21//130 147//130 149//130
f 171//131 172//131 174//131 173//131
f 89//132 91//132 92//132 90//132
f 124//133 126//133 252//133 250//133
f 169//134 170//134 172//134 171//134
f 91//135 93//135 94//135 92//135
f 105//136 103//136 229//136 231//136
f 167//137 168//137 170//137 169//137
f 93//138 95//138 96//138 94//138
f 62//139 64//139 190//139 188//139
f 165//140 166//140 168//140 167//140
f 95//141 97//141 98//141 96//141
f 43//142 41//142 167//142 169//142
f 163//143 164//143 166//143 165//143
f 97//144 99//144 100//144 98//144
f 125//145 123//145 249//145 251//145
f 161//146 162//146 164//146 163//146
f 99//147 101//147 102//147 100//147
f 82//148 84//148 210//148 208//148
f 159//149 160//149 162//149 161//149
f 101//150 103//150 104//150 102//150
f 63//151 61//151 187//151 189//151
f 157//152 158//152 160//152 159//152
f 103//153 105//153 106//153 104//153
f 20//154 22//154 148//154 146//154
f 155//155 156//155 158//155 157//155
f 105//156 107//156 108//156 106//156
f 102//157 104//157 230//157 228//157
f 153//158 154//158 156//158 155//158
f 107//159 109//159 110//159 108//159
f 83//160 81//160 207//160 209//160
f 151//161 152//161 154//161 153//161
f 109//162 111//162 112//162 110//162
f 40//163 42//163 168//163 166//163
f 149//164 150//164 152//164 151//164
f 111//165 113//165 114//165 112//165
f 21//166 19//166 145//166 147//166
f 147//167 148//167 150//167 149//167
f 113//168 115//168 116//168 114//168
f 122//169 124//169 250//169 248//169
f 145//170 146//170 148//170 147//170
f 115//171 117//171 118//171 116//171
f 103//172 101//172 227//172 229//172
f 143//173 144//173 146//173 145//173
f 117//174 119//174 120//174 118//174
f 60//175 62//175 188//175 186//175
f 141//176 142//176 144//176 143//176
f 119//177 121//177 122//177 120//177
f 41//178 39//178 165//178 167//178
f 139//179 140//179 142//179 141//179
f 121//180 123//180 124//180 122//180
f 123//181 121//181 247//181 249//181
f 137//182 138//182 140//182 139//182
f 123//183 125//183 126//183 124//183
f 80//184 82//184 208//184 206//184
f 135//185 136//185 138//185 137//185
f 125//186 127//186 128//186 126//186
f 1//187 131//187 134//187 133//187
f 133//188 134//188 136//188 135//188
f 127//189 129//189 130//189 128//189
f 91//190 89//190 215//190 217//190
f 61//191 59//191 185//191 187//191
f 129//192 3//192 4//192 130//192
f 2//193 132//193 131//193 1//193
f 28//194 30//194 156//194 154//194
f 71//195 69//195 195//195 197//195
f 90//196 92//196 218//196 216//196
f 8//197 10//197 136//197 134//197
f 51//198 49//198 175//198 177//198
f 70//199 72//199 198//199 196//199
f 113//200 111//200 237//200 239//200
f 31//201 29//201 155//201 157//201
f 50//202 52//202 178//202 176//202
f 93//203 91//203 217//203 219//203
f 112//204 114//204 240//204 238//204
f 11//205 9//205 135//205 137//205
f 30//206 32//206 158//206 156//206
f 73//207 71//207 197//207 199//207
f 92//208 94//208 220//208 218//208
f 10//209 12//209 138//209 136//209
f 53//210 51//210 177//210 179//210
f 72//211 74//211 200//211 198//211
f 115//212 113//212 239//212 241//212
f 33//213 31//213 157//213 159//213
f 52//214 54//214 180//214 178//214
f 95//215 93//215 219//215 221//215
f 114//216 116//216 242//216 240//216
f 13//217 11//217 137//217 139//217
f 32//218 34//218 160//218 158//218
f 75//219 73//219 199//219 201//219
f 94//220 96//220 222//220 220//220
f 12//221 14//221 140//221 138//221
f 55//222 53//222 179//222 181//222
f 74//223 76//223 202//223 200//223
f 117//224 115//224 241//224 243//224
f 35//225 33//225 159//225 161//225
f 54//226 56//226 182//226 180//226
f 97//227 95//227 221//227 223//227
f 116//228 118//228 244//228 242//228
f 15//229 13//229 139//229 141//229
f 34//230 36//230 162//230 160//230
f 77//231 75//231 201//231 203//231
f 96//232 98//232 224//232 222//232
f 14//233 16//233 142//233 140//233
f 57//234 55//234 181//234 183//234
f 76//235 78//235 204//235 202//235
f 119//236 117//236 243//236 245//236
f 37//237 35//237 161//237 163//237
f 56//238 58//238 184//238 182//238
f 99//239 97//239 223//239 225//239
f 118//240 120//240 246//240 244//240
f 17//241 15//241 141//241 143//241
f 36//242 38//242 164//242 162//242
f 79//243 77//243 203//243 205//243
f 98//244 100//244 226//244 224//244
f 16//245 18//245 144//245 142//245
f 59//246 57//246 183//246 185//246
f 78//247 80//247 206//247 204//247
f 121//248 119//248 245//248 247//248
f 39//249 37//249 163//249 165//249
f 58//250 60//250 186//250 184//250
f 101//251 99//251 225//251 227//251
f 120//252 122//252 248//252 246//252
f 19//253 17//253 143//253 145//253
f 38//254 40//254 166//254 164//254
f 81//255 79//255 205//255 207//255
f 100//256 102//256 228//256 226//256
f 267//257 266//257 259//257 258//257
f 268//257 267//257 258//257 257//257
f 164//257 257//257 258//257 259//257 160//257 162//257
f 262//258 196//258 194//258 192//258 260//258 261//258
f 224//257 226//257 263//257 265//257
f 226//257 228//257 264//257 263//257
f 265//257 263//257 267//257 268//257
f 263//257 264//257 266//257 267//257
f 265//257 268//257 270//257 269//257
f 261//258 260//258 270//258 269//258 262//258
f 266//257 264//257 271//257 272//257
f 131//257 272//257 271//257 256//257 132//257
