# Blender v2.79 (sub 0) OBJ File: 'SmallTable1.blend'
# www.blender.org
mtllib SmallTable1.mtl
o Cube_Cube.001
v -0.800000 2.672761 1.400000
v -0.800000 2.872761 1.400000
v -0.800000 2.672761 -1.400000
v -0.800000 2.872761 -1.400000
v 0.800000 2.672761 1.400000
v 0.800000 2.872761 1.400000
v 0.800000 2.672761 -1.400000
v 0.800000 2.872761 -1.400000
v -0.800000 2.672761 1.182029
v -0.800000 2.872761 1.182029
v 0.800000 2.672761 1.182029
v 0.800000 2.872761 1.182029
v 0.587349 2.672761 -1.400000
v 0.587349 2.872761 -1.400000
v 0.587349 2.672761 1.400000
v 0.587349 2.872761 1.400000
v 0.587349 2.872761 1.182029
v 0.587349 2.672761 1.182029
v -0.601854 2.672761 -1.400000
v -0.601854 2.872761 1.400000
v -0.601854 2.672761 1.182029
v -0.601854 2.872761 -1.400000
v -0.601854 2.672761 1.400000
v -0.601854 2.872761 1.182029
v -0.800000 0.142658 1.400000
v -0.800000 0.142658 1.182029
v -0.601854 0.142658 1.182029
v -0.601854 0.142658 1.400000
v 0.800000 0.144247 1.400000
v 0.800000 0.144247 1.182029
v 0.587349 0.144247 1.400000
v 0.587349 0.144247 1.182029
v -0.800000 0.340413 1.182029
v -0.800000 0.340413 1.400000
v -0.601854 0.340413 1.400000
v -0.601854 0.340413 1.182029
v 0.585178 0.142658 1.182030
v 0.585178 0.142658 1.400000
v 0.585178 0.340413 1.400000
v 0.585178 0.340413 1.182030
v 0.587349 0.338455 1.182029
v 0.587349 0.338455 1.400000
v 0.800000 0.338455 1.400000
v 0.800000 0.338455 1.182029
v 0.800000 0.144247 -1.153761
v 0.587349 0.144247 -1.153761
v 0.587349 0.338455 -1.153761
v 0.800000 0.338455 -1.153761
v -0.601854 0.142658 -1.122020
v -0.800000 0.142658 -1.122020
v -0.800000 0.340413 -1.122020
v -0.601854 0.340413 -1.122020
vt 0.528980 0.053455
vt 0.528980 0.000082
vt 0.578198 0.000081
vt 0.578198 0.053455
vt 0.410985 0.053455
vt 0.410985 0.000081
vt 0.418078 0.000081
vt 0.418078 0.053455
vt 0.467296 0.053455
vt 0.467297 0.000082
vt 0.471451 0.000082
vt 0.471451 0.053455
vt 0.518215 0.053455
vt 0.518215 0.000082
vt 0.524825 0.000082
vt 0.524825 0.053455
vt 0.082986 0.840824
vt 0.087588 0.843934
vt 0.048791 0.901333
vt 0.044189 0.898223
vt 0.368860 0.100381
vt 0.368860 0.106991
vt 0.364705 0.106991
vt 0.364705 0.100381
vt 0.418078 0.100381
vt 0.418078 0.106991
vt 0.363140 0.499598
vt 0.364542 0.505511
vt 0.314328 0.518284
vt 0.309967 0.511624
vt 0.361925 0.460748
vt 0.301125 0.452615
vt 0.418078 0.053618
vt 0.418078 0.060711
vt 0.368860 0.060711
vt 0.368860 0.053618
vt 0.364705 0.060711
vt 0.364705 0.053618
vt 0.303222 0.509920
vt 0.295960 0.455278
vt 0.478545 0.000082
vt 0.478545 0.053455
vt 0.371315 0.053455
vt 0.371315 0.000081
vt 0.364705 0.053455
vt 0.364705 0.000081
vt 0.000081 0.033773
vt 0.004079 0.031061
vt 0.038521 0.082371
vt 0.034528 0.084546
vt 0.362878 0.452856
vt 0.304113 0.445758
vt 0.042655 0.089974
vt 0.037456 0.091136
vt 0.043202 0.198071
vt 0.038697 0.202468
vt 0.003598 0.166504
vt 0.008102 0.162108
vt 0.044790 0.000081
vt 0.082015 0.049000
vt 0.364705 0.216236
vt 0.364705 0.212081
vt 0.404302 0.212081
vt 0.404302 0.216236
vt 0.043480 0.909189
vt 0.038879 0.906079
vt 0.004683 0.966588
vt 0.000082 0.963478
vt 0.092898 0.836078
vt 0.142209 0.869408
vt 0.136899 0.877264
vt 0.077223 0.836962
vt 0.054773 0.882935
vt 0.049009 0.879073
vt 0.047714 0.193684
vt 0.051315 0.190159
vt 0.291456 0.459674
vt 0.308598 0.441370
vt 0.055800 0.185771
vt 0.073809 0.168100
vt 0.070186 0.171736
vt 0.035086 0.135772
vt 0.038977 0.134372
vt 0.101321 0.126977
vt 0.297458 0.506058
vt 0.093328 0.847809
vt 0.320058 0.522172
vt 0.099058 0.851697
vt 0.371799 0.158981
vt 0.364705 0.158981
vt 0.364705 0.107154
vt 0.371799 0.107154
vt 0.092791 0.942520
vt 0.053994 0.999919
vt 0.098102 0.934663
vt 0.371315 0.211918
vt 0.364705 0.211918
vt 0.364705 0.159144
vt 0.371315 0.159144
vt 0.087060 0.055425
vt 0.128334 0.092770
vt 0.106469 0.131042
vt 0.133483 0.096835
vn -1.0000 0.0000 0.0000
vn 0.0000 0.0000 -1.0000
vn 1.0000 0.0000 0.0000
vn 0.0000 0.0000 1.0000
vn 0.0000 1.0000 0.0000
vn 0.0000 -1.0000 0.0000
usemtl SmallTable1TextMat
s off
f 9/1/1 10/2/1 4/3/1 3/4/1
f 13/5/2 14/6/2 8/7/2 7/8/2
f 11/9/3 12/10/3 6/11/3 5/12/3
f 23/13/4 20/14/4 2/15/4 1/16/4
f 42/17/1 41/18/1 32/19/1 31/20/1
f 24/21/5 10/22/5 2/23/5 20/24/5
f 22/25/5 4/26/5 10/22/5 24/21/5
f 13/27/6 7/28/6 11/29/6 18/30/6
f 7/8/3 8/7/3 12/10/3 11/9/3
f 1/16/1 2/15/1 10/2/1 9/1/1
f 19/31/6 13/27/6 18/30/6 21/32/6
f 8/33/5 14/34/5 17/35/5 12/36/5
f 12/36/5 17/35/5 16/37/5 6/38/5
f 21/32/6 18/30/6 15/39/6 23/40/6
f 5/12/4 6/11/4 16/41/4 15/42/4
f 19/43/2 22/44/2 14/6/2 13/5/2
f 3/45/2 4/46/2 22/44/2 19/43/2
f 34/47/1 33/48/1 26/49/1 25/50/1
f 3/51/6 19/31/6 21/32/6 9/52/6
f 14/34/5 22/25/5 24/21/5 17/35/5
f 17/35/5 24/21/5 20/24/5 16/37/5
f 15/42/4 16/41/4 20/14/4 23/13/4
f 26/49/6 27/53/6 28/54/6 25/50/6
f 35/55/4 34/56/4 25/57/4 28/58/4
f 26/49/1 33/48/1 51/59/1 50/60/1
f 36/61/5 35/62/5 39/63/5 40/64/5
f 32/19/6 30/65/6 29/66/6 31/20/6
f 44/67/3 43/68/3 29/66/3 30/65/3
f 41/18/5 44/69/5 48/70/5 47/71/5
f 43/72/4 42/17/4 31/73/4 29/74/4
f 21/32/3 23/40/3 35/55/3 36/75/3
f 9/52/2 21/32/2 36/75/2 33/76/2
f 23/40/4 1/77/4 34/56/4 35/55/4
f 1/78/1 9/52/1 33/76/1 34/79/1
f 40/80/3 39/81/3 38/82/3 37/83/3
f 27/53/2 36/84/2 40/80/2 37/83/2
f 35/55/4 28/58/4 38/82/4 39/81/4
f 28/54/6 27/53/6 37/83/6 38/82/6
f 5/85/4 15/39/4 42/17/4 43/72/4
f 18/30/2 11/29/2 44/86/2 41/18/2
f 11/29/3 5/87/3 43/88/3 44/86/3
f 15/39/1 18/30/1 41/18/1 42/17/1
f 47/89/2 48/90/2 45/91/2 46/92/2
f 44/67/3 30/65/3 45/93/3 48/94/3
f 32/19/1 41/18/1 47/71/1 46/95/1
f 30/65/6 32/19/6 46/95/6 45/93/6
f 51/96/2 52/97/2 49/98/2 50/99/2
f 36/84/3 27/53/3 49/100/3 52/101/3
f 27/53/6 26/49/6 50/60/6 49/100/6
f 33/102/5 36/84/5 52/101/5 51/103/5
