# Blender v2.79 (sub 0) OBJ File: ''
# www.blender.org
mtllib CurtCurtain.mtl
o Cube_Cube.002
v -0.008773 0.142509 -2.356216
v -0.008773 4.702510 -2.301803
v -0.008773 4.702510 -2.521812
v -0.008773 0.142509 -2.521814
v 0.052923 4.702510 -2.521812
v 0.052923 0.142509 -2.521814
v 0.052923 0.142509 2.276042
v 0.052923 4.702508 2.276044
v 0.052923 4.702508 2.438188
v 0.052923 0.142509 2.438186
v -0.008773 4.702508 2.438188
v -0.008773 0.142509 2.438186
v -0.008773 0.142509 2.276042
v -0.008773 4.702508 2.276044
v 0.052923 4.702508 2.194060
v 0.052923 4.702508 2.194060
v 0.052923 4.702508 2.276044
v -0.008773 0.142509 2.194058
v 0.052923 0.142509 2.194058
v 0.052923 0.142509 -2.217993
v 0.052923 4.702510 -2.217991
v -0.008773 0.142509 -2.217993
v -0.008773 4.702510 -2.217991
v -0.008773 4.702508 2.194060
v 0.052923 4.702510 -2.301803
v 0.052923 0.142509 -2.356216
v 0.052923 4.857594 -2.301803
v 0.052923 4.857594 -2.217991
v 0.052923 4.842866 2.194060
v -0.008773 4.842866 2.194060
v -0.008773 4.842866 2.276044
v 0.052923 4.842866 2.276044
v 0.052923 4.842866 2.194060
v 0.052923 4.842866 2.276044
v -0.008773 4.857594 -2.301803
v -0.008773 4.857594 -2.217991
vt 0.083129 0.250754
vt 0.085651 0.492717
vt 0.074919 0.492711
vt 0.075050 0.250750
vt 0.074766 0.484313
vt 0.074766 0.726432
vt 0.000077 0.726432
vt 0.000077 0.484313
vt 0.082867 0.000078
vt 0.082830 0.242064
vt 0.074919 0.242063
vt 0.074956 0.000077
vt 0.000077 0.242195
vt 0.000077 0.000077
vt 0.074765 0.000077
vt 0.074766 0.242195
vt 0.074766 0.250110
vt 0.000077 0.250110
vt 0.000077 0.992008
vt 0.074765 0.992008
vt 0.074765 0.999923
vt 0.000077 0.999923
vt 0.087054 0.242063
vt 0.086963 0.242158
vt 0.082919 0.242139
vt 0.074766 0.254112
vt 0.000077 0.254112
vt 0.087090 0.000077
vt 0.317234 0.250750
vt 0.317239 0.492712
vt 0.309329 0.492712
vt 0.309325 0.250750
vt 0.302344 0.000109
vt 0.302307 0.242096
vt 0.074766 0.469483
vt 0.000077 0.469483
vt 0.000077 0.757731
vt 0.074766 0.757731
vt 0.074765 0.973101
vt 0.000077 0.973101
vt 0.305106 0.492716
vt 0.305101 0.250754
vt 0.074766 0.737171
vt 0.000077 0.737171
vt 0.000077 0.476230
vt 0.074766 0.476230
vt 0.317165 0.000103
vt 0.317264 0.242091
vt 0.306531 0.242095
vt 0.309086 0.000107
vt 0.089870 0.250758
vt 0.089875 0.492720
vt 0.306532 0.250596
vt 0.302308 0.250597
vt 0.000077 0.980554
vt 0.074765 0.980554
vt 0.074765 0.984556
vt 0.000077 0.984556
vt 0.309337 0.500576
vt 0.305113 0.500580
vt 0.086837 0.247166
vt 0.083327 0.247046
vt 0.087052 0.247316
vt 0.086942 0.247239
vt 0.083147 0.247200
vt 0.083225 0.247131
vt 0.000077 0.745405
vt 0.074766 0.745405
vt 0.074766 0.749497
vt 0.000077 0.749496
vt 0.089870 0.501220
vt 0.085647 0.501218
vn -1.0000 0.0000 0.0000
vn 0.0000 0.0000 -1.0000
vn 1.0000 -0.0000 0.0000
vn 0.0000 -0.0000 1.0000
vn 0.0000 -1.0000 -0.0000
vn 0.0000 1.0000 0.0000
vn 0.0000 0.0000 0.0000
usemtl Material.002
s 1
f 1/1/1 2/2/1 3/3/1 4/4/1
f 4/5/2 3/6/2 5/7/2 6/8/2
f 7/9/3 8/10/3 9/11/3 10/12/3
f 10/13/4 9/14/4 11/15/4 12/16/4
f 13/17/5 7/18/5 10/13/5 12/16/5
f 8/19/6 14/20/6 11/21/6 9/22/6
f 8/10/7 15/23/7 16/24/7 17/25/7
f 18/26/5 19/27/5 7/18/5 13/17/5
f 19/28/3 15/23/3 8/10/3 7/9/3
f 12/29/1 11/30/1 14/31/1 13/32/1
f 20/33/3 21/34/3 15/23/3 19/28/3
f 22/35/5 20/36/5 19/27/5 18/26/5
f 21/37/6 23/38/6 24/39/6 15/40/6
f 13/32/1 14/31/1 24/41/1 18/42/1
f 5/7/6 3/6/6 2/43/6 25/44/6
f 4/5/5 6/8/5 26/45/5 1/46/5
f 6/47/3 5/48/3 25/49/3 26/50/3
f 22/51/1 23/52/1 2/2/1 1/1/1
f 18/42/1 24/41/1 23/52/1 22/51/1
f 21/34/3 25/49/3 27/53/3 28/54/3
f 1/46/5 26/45/5 20/36/5 22/35/5
f 26/50/3 25/49/3 21/34/3 20/33/3
f 29/55/6 30/56/6 31/57/6 32/58/6
f 15/40/2 24/39/2 30/56/2 29/55/2
f 24/41/1 14/31/1 31/59/1 30/60/1
f 14/20/4 8/19/7 32/58/7 31/57/4
f 17/25/3 16/24/3 33/61/3 34/62/3
f 15/23/7 29/63/7 33/64/7 16/24/7
f 29/63/7 32/65/7 34/66/7 33/64/7
f 32/65/7 8/10/7 17/25/7 34/66/7
f 27/67/6 35/68/6 36/69/6 28/70/6
f 25/44/2 2/43/2 35/68/2 27/67/2
f 23/38/4 21/37/4 28/70/4 36/69/4
f 2/2/1 23/52/1 36/71/1 35/72/1
